<?xml version="1.0" ?><!DOCTYPE svg  PUBLIC '-//W3C//DTD SVG 1.1//EN'  'http://www.w3.org/Graphics/SVG/1.1/DTD/svg11.dtd'><svg enable-background="new 0 0 355 355" height="355px" id="Layer_1" version="1.1" viewBox="0 0 355 355" width="355px" xml:space="preserve" xmlns="http://www.w3.org/2000/svg" xmlns:xlink="http://www.w3.org/1999/xlink"><g><g><rect fill="#AFAFAF" height="115.424" width="115.425" x="23.037" y="90.019"/><g><g><rect fill="#41464B" height="3.746" width="1.873" x="144.689" y="74.981"/><path d="M141.036,78.727h-3.653v-3.746h3.653V78.727z M133.728,78.727h-3.653v-3.746h3.653V78.727z       M126.421,78.727h-3.654v-3.746h3.654V78.727z M119.114,78.727h-3.653v-3.746h3.653V78.727z M111.806,78.727h-3.653v-3.746      h3.653V78.727z M104.499,78.727h-3.654v-3.746h3.654V78.727z M97.191,78.727h-3.653v-3.746h3.653V78.727z M89.884,78.727H86.23      v-3.746h3.653V78.727z M82.577,78.727h-3.654v-3.746h3.654V78.727z M75.27,78.727h-3.653v-3.746h3.653V78.727z M67.962,78.727      h-3.653v-3.746h3.653V78.727z M60.654,78.727H57v-3.746h3.654V78.727z M53.347,78.727h-3.654v-3.746h3.654V78.727z       M46.04,78.727h-3.653v-3.746h3.653V78.727z M38.732,78.727h-3.653v-3.746h3.653V78.727z M31.425,78.727h-3.654v-3.746h3.654      V78.727z M24.118,78.727h-3.653v-3.746h3.653V78.727z" fill="#41464B"/><rect fill="#41464B" height="3.746" width="1.873" x="14.938" y="74.981"/></g><g><rect fill="#41464B" height="3.745" width="1.873" x="144.689" y="216.73"/><path d="M141.036,220.476h-3.653v-3.745h3.653V220.476z M133.728,220.476h-3.653v-3.745h3.653V220.476z       M126.421,220.476h-3.654v-3.745h3.654V220.476z M119.114,220.476h-3.653v-3.745h3.653V220.476z M111.806,220.476h-3.653v-3.745      h3.653V220.476z M104.499,220.476h-3.654v-3.745h3.654V220.476z M97.191,220.476h-3.653v-3.745h3.653V220.476z M89.884,220.476      H86.23v-3.745h3.653V220.476z M82.577,220.476h-3.654v-3.745h3.654V220.476z M75.27,220.476h-3.653v-3.745h3.653V220.476z       M67.962,220.476h-3.653v-3.745h3.653V220.476z M60.654,220.476H57v-3.745h3.654V220.476z M53.347,220.476h-3.654v-3.745h3.654      V220.476z M46.04,220.476h-3.653v-3.745h3.653V220.476z M38.732,220.476h-3.653v-3.745h3.653V220.476z M31.425,220.476h-3.654      v-3.745h3.654V220.476z M24.118,220.476h-3.653v-3.745h3.653V220.476z" fill="#41464B"/><rect fill="#41464B" height="3.745" width="1.873" x="14.938" y="216.73"/></g><g><rect fill="#41464B" height="1.873" width="3.746" x="8.002" y="211.667"/><path d="M11.748,208.014H8.002v-3.654h3.746V208.014z M11.748,200.706H8.002v-3.654h3.746V200.706z       M11.748,193.398H8.002v-3.653h3.746V193.398z M11.748,186.092H8.002v-3.653h3.746V186.092z M11.748,178.784H8.002v-3.654h3.746      V178.784z M11.748,171.477H8.002v-3.653h3.746V171.477z M11.748,164.17H8.002v-3.653h3.746V164.17z M11.748,156.862H8.002      v-3.653h3.746V156.862z M11.748,149.555H8.002v-3.653h3.746V149.555z M11.748,142.248H8.002v-3.654h3.746V142.248z       M11.748,134.94H8.002v-3.653h3.746V134.94z M11.748,127.633H8.002v-3.654h3.746V127.633z M11.748,120.326H8.002v-3.654h3.746      V120.326z M11.748,113.019H8.002v-3.654h3.746V113.019z M11.748,105.711H8.002v-3.653h3.746V105.711z M11.748,98.404H8.002      V94.75h3.746V98.404z M11.748,91.097H8.002v-3.654h3.746V91.097z" fill="#41464B"/><rect fill="#41464B" height="1.873" width="3.746" x="8.002" y="81.917"/></g><g><rect fill="#41464B" height="1.873" width="3.745" x="149.751" y="211.667"/><path d="M153.496,208.014h-3.745v-3.654h3.745V208.014z M153.496,200.706h-3.745v-3.654h3.745V200.706z       M153.496,193.398h-3.745v-3.653h3.745V193.398z M153.496,186.092h-3.745v-3.653h3.745V186.092z M153.496,178.784h-3.745v-3.654      h3.745V178.784z M153.496,171.477h-3.745v-3.653h3.745V171.477z M153.496,164.17h-3.745v-3.653h3.745V164.17z M153.496,156.862      h-3.745v-3.653h3.745V156.862z M153.496,149.555h-3.745v-3.653h3.745V149.555z M153.496,142.248h-3.745v-3.654h3.745V142.248z       M153.496,134.94h-3.745v-3.653h3.745V134.94z M153.496,127.633h-3.745v-3.654h3.745V127.633z M153.496,120.326h-3.745v-3.654      h3.745V120.326z M153.496,113.019h-3.745v-3.654h3.745V113.019z M153.496,105.711h-3.745v-3.653h3.745V105.711z M153.496,98.404      h-3.745V94.75h3.745V98.404z M153.496,91.097h-3.745v-3.654h3.745V91.097z" fill="#41464B"/><rect fill="#41464B" height="1.873" width="3.745" x="149.751" y="81.917"/></g></g><g><path d="M16.81,83.792H2.939V69.921H16.81V83.792z M6.685,80.046h6.379v-6.38H6.685V80.046z" fill="#41464B"/><path d="M158.56,83.792h-13.871V69.921h13.871V83.792z M148.434,80.046h6.38v-6.38h-6.38V80.046z" fill="#41464B"/><path d="M16.81,225.54H2.939v-13.87H16.81V225.54z M6.685,221.795h6.379v-6.38H6.685V221.795z" fill="#41464B"/><path d="M158.56,225.54h-13.871v-13.87h13.871V225.54z M148.434,221.795h6.38v-6.38h-6.38V221.795z" fill="#41464B"/></g></g><g><g><path d="M329.208,264.963V102.946H56.565v203.952h272.643c11.599,0,20.971-9.396,20.971-20.969v-0.186     C350.082,274.248,340.748,264.963,329.208,264.963z" fill="#4CBED8"/><path d="M329.208,293.584H69.879V116.262H329.21v3.745H73.625v169.832h255.583     c10.53,0,19.098-8.565,19.098-19.097h3.745C352.051,283.338,341.804,293.584,329.208,293.584z" fill="#FFFFFF"/><g><polygon fill="#41464B" points="58.438,205.442 54.692,205.442 54.692,101.074 329.208,101.074 329.208,104.819 58.438,104.819           "/><path d="M329.208,308.771h-90.48v-3.746h90.48c10.53,0,19.098-8.566,19.098-19.096h3.745      C352.051,298.523,341.804,308.771,329.208,308.771z" fill="#41464B"/><path d="M352.061,285.921h-3.745c0-10.524-8.571-19.086-19.107-19.086h-1.872l0.003-186.732l1.874,0.001      c12.598,0.006,22.848,10.254,22.848,22.846V285.921z M331.081,263.165c7.201,0.587,13.469,4.525,17.234,10.243V102.95      c0-9.896-7.573-18.061-17.231-19.009L331.081,263.165z" fill="#41464B"/></g><g><rect fill="#41464B" height="3.744" width="3.745" x="337.823" y="101.175"/><rect fill="#41464B" height="3.744" width="3.745" x="337.823" y="108.664"/><rect fill="#41464B" height="3.745" width="3.745" x="337.823" y="116.152"/></g></g><g><g><rect fill="#FFFFFF" height="3.745" width="3.745" x="259.357" y="263.8"/><path d="M255.559,267.545h-3.799V263.8h3.799V267.545z M247.961,267.545h-3.798V263.8h3.798V267.545z       M232.767,267.545h-3.798V263.8h3.798V267.545z M225.171,267.545h-3.799V263.8h3.799V267.545z M217.574,267.545h-3.799V263.8      h3.799V267.545z M209.977,267.545h-3.799V263.8h3.799V267.545z M202.38,267.545h-3.799V263.8h3.799V267.545z M194.782,267.545      h-3.799V263.8h3.799V267.545z M187.186,267.545h-3.799V263.8h3.799V267.545z M179.588,267.545h-3.798V263.8h3.798V267.545z       M171.991,267.545h-3.798V263.8h3.798V267.545z M164.395,267.545h-3.798V263.8h3.798V267.545z M156.797,267.545h-3.798V263.8      h3.798V267.545z M149.2,267.545h-3.798V263.8h3.798V267.545z" fill="#FFFFFF"/><rect fill="#FFFFFF" height="3.745" width="3.745" x="137.858" y="263.8"/><path d="M141.603,260.001h-3.745v-3.799h3.745V260.001z M141.603,252.403h-3.745v-3.798h3.745V252.403z       M141.603,244.807h-3.745v-3.798h3.745V244.807z M141.603,237.209h-3.745v-3.797h3.745V237.209z M141.603,229.612h-3.745v-3.798      h3.745V229.612z M141.603,222.015h-3.745v-3.797h3.745V222.015z M141.603,214.419h-3.745v-3.799h3.745V214.419z       M141.603,206.821h-3.745v-3.798h3.745V206.821z M141.603,199.225h-3.745v-3.799h3.745V199.225z M141.603,191.627h-3.745v-3.798      h3.745V191.627z M141.603,184.031h-3.745v-3.8h3.745V184.031z M141.603,176.434h-3.745v-3.8h3.745V176.434z M141.603,168.837      h-3.745v-3.8h3.745V168.837z M141.603,161.24h-3.745v-3.8h3.745V161.24z M141.603,153.643h-3.745v-3.798h3.745V153.643z" fill="#FFFFFF"/><rect fill="#FFFFFF" height="3.745" width="3.745" x="137.858" y="142.3"/><path d="M255.559,146.045h-3.799V142.3h3.799V146.045z M247.961,146.045h-3.798V142.3h3.798V146.045z       M240.364,146.045h-3.799V142.3h3.799V146.045z M232.769,146.045h-3.799V142.3h3.799V146.045z M225.171,146.045h-3.799V142.3      h3.799V146.045z M217.574,146.045h-3.799V142.3h3.799V146.045z M209.977,146.045h-3.799V142.3h3.799V146.045z M202.38,146.045      h-3.799V142.3h3.799V146.045z M194.782,146.045h-3.799V142.3h3.799V146.045z M187.186,146.045h-3.799V142.3h3.799V146.045z       M179.588,146.045h-3.798V142.3h3.798V146.045z M171.992,146.045h-3.798V142.3h3.798V146.045z M156.797,146.045h-3.798V142.3      h3.798V146.045z M149.2,146.045h-3.798V142.3h3.798V146.045z" fill="#FFFFFF"/><rect fill="#FFFFFF" height="3.745" width="3.745" x="259.357" y="142.3"/><path d="M263.103,260.001h-3.745v-3.799h3.745V260.001z M263.103,252.403h-3.745v-3.797h3.745V252.403z       M263.103,244.807h-3.745v-3.798h3.745V244.807z M263.103,237.209h-3.745v-3.797h3.745V237.209z M263.103,229.612h-3.745v-3.798      h3.745V229.612z M263.103,222.016h-3.745v-3.798h3.745V222.016z M263.103,214.419h-3.745v-3.799h3.745V214.419z       M263.103,206.821h-3.745v-3.798h3.745V206.821z M263.103,199.225h-3.745v-3.799h3.745V199.225z M263.103,191.629h-3.745v-3.8      h3.745V191.629z M263.103,184.031h-3.745v-3.8h3.745V184.031z M263.103,176.434h-3.745v-3.8h3.745V176.434z M263.103,168.837      h-3.745v-3.8h3.745V168.837z M263.103,161.24h-3.745v-3.798h3.745V161.24z M263.103,153.643h-3.745v-3.798h3.745V153.643z" fill="#FFFFFF"/></g><g><g><path d="M205.289,249.826h-9.595l-1.941-9.672c-1.688-0.326-3.381-0.779-5.056-1.356l-6.513,7.415l-8.309-4.805       l3.16-9.343c-1.321-1.141-2.556-2.378-3.692-3.694l-9.351,3.169l-4.806-8.325l7.41-6.504c-0.581-1.668-1.036-3.359-1.357-5.05       l-9.664-1.935v-9.61l9.661-1.919c0.324-1.702,0.78-3.399,1.362-5.07l-7.412-6.489l4.805-8.335l9.35,3.17       c1.136-1.313,2.372-2.55,3.693-3.692l-3.159-9.352l8.309-4.795l6.514,7.407c1.63-0.565,3.316-1.018,5.04-1.351l1.939-9.67       h9.611l1.932,9.668c1.729,0.333,3.416,0.784,5.043,1.348l6.521-7.397l8.317,4.789l-3.168,9.354       c1.314,1.142,2.551,2.378,3.693,3.693l9.358-3.174l4.782,8.338l-7.398,6.492c0.566,1.631,1.019,3.325,1.353,5.064l9.661,1.921       v9.609l-9.663,1.939c-0.333,1.728-0.784,3.414-1.349,5.039l7.396,6.511l-4.782,8.326l-9.359-3.171       c-1.139,1.313-2.375,2.551-3.692,3.693l3.169,9.346l-8.317,4.802l-6.518-7.405c-1.641,0.571-3.33,1.023-5.048,1.353       L205.289,249.826z M198.763,246.08h3.456l1.837-9.201l1.295-0.198c2.333-0.359,4.619-0.972,6.792-1.82l1.222-0.477l6.204,7.05       l3.001-1.731l-3.015-8.888l1.019-0.822c1.835-1.479,3.51-3.155,4.979-4.982l0.82-1.019l8.898,3.015l1.725-3.003l-7.048-6.202       l0.478-1.222c0.839-2.143,1.451-4.427,1.818-6.786l0.202-1.291l9.191-1.845v-3.467l-9.189-1.829l-0.201-1.293       c-0.369-2.375-0.982-4.667-1.824-6.813l-0.479-1.223l7.051-6.188l-1.725-3.007l-8.891,3.014l-0.821-1.016       c-1.479-1.83-3.156-3.507-4.985-4.986l-1.015-0.819l3.011-8.891l-3.001-1.728l-6.208,7.044l-1.22-0.477       c-2.146-0.836-4.433-1.448-6.795-1.818l-1.29-0.202l-1.837-9.195h-3.473l-1.845,9.197l-1.288,0.202       c-2.353,0.369-4.638,0.982-6.794,1.823l-1.222,0.476l-6.199-7.051l-2.991,1.728l3.004,8.897l-1.019,0.82       c-1.838,1.478-3.511,3.151-4.973,4.977l-0.82,1.023l-8.897-3.02l-1.735,3.01l7.055,6.176l-0.476,1.223       c-0.868,2.234-1.483,4.528-1.828,6.817l-0.195,1.302l-9.201,1.827v3.466l9.204,1.843l0.194,1.3       c0.341,2.271,0.954,4.558,1.824,6.793l0.476,1.223l-7.053,6.188l1.733,3.004l8.906-3.017l0.819,1.026       c1.46,1.826,3.131,3.498,4.967,4.97l1.022,0.82l-3.008,8.896l2.991,1.729l6.189-7.046l1.217,0.466       c2.252,0.862,4.546,1.478,6.816,1.827l1.293,0.198L198.763,246.08z" fill="#41464B"/><path d="M200.49,227.021c-12.196,0-22.119-9.913-22.119-22.099c0-12.2,9.923-22.127,22.119-22.127       c12.2,0,22.126,9.927,22.126,22.127C222.616,217.107,212.69,227.021,200.49,227.021z M200.49,186.54       c-10.132,0-18.373,8.246-18.373,18.382c0,10.121,8.241,18.354,18.373,18.354c10.136,0,18.381-8.232,18.381-18.354       C218.871,194.786,210.626,186.54,200.49,186.54z" fill="#41464B"/></g></g><g><polygon fill="#41464B" points="164.105,155.311 160.36,155.311 160.36,131.871 90.287,131.871 90.287,128.125 164.105,128.125           "/><rect fill="#41464B" height="3.745" width="31.008" x="90.287" y="135.213"/><rect fill="#41464B" height="3.745" width="31.008" x="90.287" y="142.3"/></g><g><polygon fill="#41464B" points="310.673,281.719 236.855,281.719 236.855,254.534 240.601,254.534 240.601,277.974       310.673,277.974     "/><rect fill="#41464B" height="3.745" width="31.008" x="279.665" y="270.887"/><rect fill="#41464B" height="3.745" width="31.008" x="279.665" y="263.8"/></g><g><path d="M307.511,160.221h-32.095v-32.095h32.095V160.221z M279.161,156.476h24.604v-24.604h-24.604V156.476z" fill="#41464B"/><rect fill="#41464B" height="3.744" transform="matrix(0.7071 0.7071 -0.7071 0.7071 187.3162 -163.8692)" width="40.093" x="271.417" y="142.301"/><rect fill="#41464B" height="40.093" transform="matrix(0.7071 0.7071 -0.7071 0.7071 187.3126 -163.8679)" width="3.745" x="289.59" y="124.126"/></g><g><rect fill="#41464B" height="3.745" width="31.007" x="88.845" y="270.887"/><rect fill="#41464B" height="3.745" width="31.007" x="88.845" y="263.8"/><g><rect fill="#41464B" height="3.745" width="3.743" x="88.845" y="277.974"/><rect fill="#41464B" height="3.745" width="3.743" x="96.333" y="277.974"/><rect fill="#41464B" height="3.745" width="3.743" x="103.82" y="277.974"/></g></g><g><path d="M108.106,174.396H90.187v-17.92h17.919V174.396z M93.932,170.65h10.429v-10.429H93.932V170.65z" fill="#41464B"/><path d="M108.106,195.658H90.187v-17.921h17.919V195.658z M93.932,191.913h10.429v-10.431H93.932V191.913z" fill="#41464B"/><path d="M108.106,216.921H90.187V199h17.919V216.921z M93.932,213.176h10.429v-10.431H93.932V213.176z" fill="#41464B"/></g></g></g><g><rect fill="#FF7443" height="30.374" width="228.852" x="9.875" y="291.712"/><path d="M240.601,323.958H8.002v-34.119h232.598V323.958z M11.748,320.213h225.107v-26.629H11.748V320.213z" fill="#41464B"/><g><rect fill="#41464B" height="7.594" width="3.745" x="15.894" y="314.492"/><rect fill="#41464B" height="7.594" width="3.746" x="23.785" y="314.492"/><rect fill="#41464B" height="7.594" width="3.745" x="31.675" y="314.492"/><rect fill="#41464B" height="7.594" width="3.746" x="39.569" y="314.492"/><rect fill="#41464B" height="7.594" width="3.745" x="47.46" y="314.492"/><rect fill="#41464B" height="7.594" width="3.746" x="55.351" y="314.492"/><rect fill="#41464B" height="7.594" width="3.745" x="63.243" y="314.492"/><rect fill="#41464B" height="7.594" width="3.746" x="71.134" y="314.492"/><rect fill="#41464B" height="7.594" width="3.745" x="79.025" y="314.492"/><rect fill="#41464B" height="7.594" width="3.745" x="86.916" y="314.492"/><rect fill="#41464B" height="7.594" width="3.746" x="94.807" y="314.492"/><rect fill="#41464B" height="7.594" width="3.745" x="102.699" y="314.492"/><rect fill="#41464B" height="7.594" width="3.745" x="110.592" y="314.492"/><rect fill="#41464B" height="7.594" width="3.745" x="118.482" y="314.492"/><rect fill="#41464B" height="7.594" width="3.745" x="126.375" y="314.492"/><rect fill="#41464B" height="7.594" width="3.745" x="134.266" y="314.492"/><rect fill="#41464B" height="7.594" width="3.745" x="142.158" y="314.492"/><rect fill="#41464B" height="7.594" width="3.745" x="150.049" y="314.492"/><rect fill="#41464B" height="7.594" width="3.745" x="157.941" y="314.492"/><rect fill="#41464B" height="7.594" width="3.745" x="165.832" y="314.492"/><rect fill="#41464B" height="7.594" width="3.745" x="173.725" y="314.492"/><rect fill="#41464B" height="7.594" width="3.745" x="181.615" y="314.492"/><rect fill="#41464B" height="7.594" width="3.745" x="189.505" y="314.492"/><rect fill="#41464B" height="7.594" width="3.746" x="197.396" y="314.492"/><rect fill="#41464B" height="7.594" width="3.745" x="205.288" y="314.492"/><rect fill="#41464B" height="7.594" width="3.745" x="213.182" y="314.492"/><rect fill="#41464B" height="7.594" width="3.745" x="221.072" y="314.492"/><rect fill="#41464B" height="7.594" width="3.746" x="228.963" y="314.492"/></g></g><g><rect fill="#FED65C" height="15.52" width="207.543" x="79.847" y="337.607"/><path d="M56.565,340.932c0-0.849,0.324-1.701,0.975-2.351c0.65-0.65,1.501-0.976,2.351-0.976h4.434v15.521h-4.434    c-0.85,0-1.701-0.325-2.351-0.977c-0.651-0.646-0.975-1.5-0.975-2.35V340.932z" fill="#AFAFAF"/><g><polygon fill="#454545" points="287.981,354.904 286.797,351.351 304.751,345.367 286.797,339.383 287.981,335.829      316.595,345.369    "/><rect fill="#454545" height="5.169" width="3.745" x="301.049" y="342.781"/><path d="M287.39,355H79.847c-1.035,0-1.873-0.838-1.873-1.873v-15.52c0-1.035,0.838-1.873,1.873-1.873     l207.543-0.001c0.496,0,0.973,0.197,1.323,0.549c0.352,0.351,0.549,0.827,0.549,1.323v15.521     C289.262,354.162,288.424,355,287.39,355z M81.719,351.255h203.797v-11.776l-203.797,0.001V351.255z" fill="#454545"/><rect fill="#454545" height="3.746" width="207.543" x="79.847" y="343.494"/><path d="M81.719,355H62.453v-19.267h19.267V355z M66.198,351.255h11.776v-11.776H66.198V351.255z" fill="#454545"/><path d="M66.198,355h-6.307c-1.388,0-2.694-0.542-3.676-1.526c-0.98-0.974-1.522-2.279-1.522-3.673v-8.869     c0-1.39,0.541-2.694,1.524-3.676c0.981-0.982,2.287-1.522,3.674-1.522h6.307V355z M59.891,339.479     c-0.388,0-0.752,0.151-1.027,0.427c-0.274,0.274-0.426,0.638-0.426,1.026v8.869c0,0.388,0.149,0.751,0.422,1.021     c0.281,0.28,0.645,0.433,1.031,0.433h2.562v-11.776H59.891z" fill="#454545"/><rect fill="#454545" height="15.521" width="3.745" x="70.214" y="337.605"/></g></g><g><path d="M209.174,28.197c-5.499,0-9.973-4.474-9.973-9.973c0-5.499,4.474-9.972,9.973-9.972    s9.973,4.474,9.973,9.972C219.146,23.724,214.673,28.197,209.174,28.197z M209.174,11.998c-3.434,0-6.227,2.793-6.227,6.227    c0,3.434,2.793,6.228,6.227,6.228c3.435,0,6.228-2.793,6.228-6.228C215.401,14.791,212.608,11.998,209.174,11.998z" fill="#41464B"/><path d="M209.173,63.782c-11.672,0-23.342-4.442-32.228-13.328l2.647-2.648    c16.313,16.311,42.851,16.309,59.161-0.001l2.648,2.648C232.518,59.338,220.845,63.782,209.173,63.782z" fill="#41464B"/><g><rect fill="#41464B" height="67.663" transform="matrix(0.9565 0.2916 -0.2916 0.9565 25.4693 -54.7053)" width="3.746" x="194.387" y="24.26"/><rect fill="#41464B" height="3.746" transform="matrix(0.2917 0.9565 -0.9565 0.2917 212.8809 -171.2837)" width="67.663" x="188.257" y="56.219"/></g><rect fill="#41464B" height="10.125" width="3.745" x="207.302"/><g><rect fill="#41464B" height="3.745" width="3.744" x="199.816" y="88.479"/><rect fill="#41464B" height="3.745" width="3.742" x="207.304" y="88.479"/><rect fill="#41464B" height="3.745" width="3.743" x="214.789" y="88.479"/></g></g><g><rect fill="#FED65C" height="44.143" width="44.142" x="262.997" y="46.308"/><path d="M331.081,70.253h-47.888V22.367h47.888V70.253z M286.939,66.508h40.396V26.112h-40.396V66.508z" fill="#41464B"/></g><g><g><rect fill="#41464B" height="3.746" width="84.312" x="56.565" y="52.967"/><rect fill="#41464B" height="3.745" width="42.155" x="56.565" y="60.054"/><rect fill="#FF7443" height="10.632" width="10.631" x="40.871" y="53.067"/></g><g><rect fill="#41464B" height="3.745" width="84.312" x="56.565" y="24.617"/><rect fill="#41464B" height="3.746" width="42.155" x="56.565" y="31.704"/><rect fill="#FF7443" height="10.632" width="10.631" x="40.871" y="24.717"/><rect fill="#41464B" height="3.748" width="3.745" x="44.314" y="28.16"/></g><g><rect fill="#41464B" height="3.745" width="84.312" x="56.565" y="38.792"/><rect fill="#41464B" height="3.745" width="42.155" x="56.565" y="45.88"/><rect fill="#FF7443" height="10.631" width="10.631" x="40.871" y="38.893"/><rect fill="#41464B" height="3.748" width="3.745" x="44.314" y="42.334"/></g></g></g></svg>