<?xml version="1.0" standalone="no"?>
<!DOCTYPE svg PUBLIC "-//W3C//DTD SVG 20010904//EN"
 "http://www.w3.org/TR/2001/REC-SVG-20010904/DTD/svg10.dtd">
<svg version="1.0" xmlns="http://www.w3.org/2000/svg"
 width="3000.000000pt" height="3000.000000pt" viewBox="0 0 3000.000000 3000.000000"
 preserveAspectRatio="xMidYMid meet">

<g transform="translate(0.000000,3000.000000) scale(0.100000,-0.100000)"
fill="#000000" stroke="none">
<path d="M90 26270 c0 -5 9 -10 19 -10 11 0 22 -4 25 -9 3 -5 18 -12 33 -15
16 -4 57 -17 93 -30 36 -13 92 -31 125 -41 33 -10 69 -22 80 -26 11 -5 43 -14
70 -20 94 -20 160 -35 175 -41 8 -4 38 -11 65 -16 54 -11 201 -47 250 -62 17
-5 48 -12 70 -15 22 -4 49 -10 60 -15 11 -5 43 -14 70 -19 28 -5 79 -17 115
-26 83 -21 119 -29 205 -50 39 -9 97 -24 130 -32 33 -8 85 -20 115 -27 30 -7
62 -15 70 -19 8 -3 38 -11 65 -16 45 -9 112 -25 215 -51 151 -38 256 -63 340
-81 30 -6 62 -13 70 -17 8 -3 40 -11 70 -18 65 -14 212 -51 255 -64 17 -5 48
-12 70 -15 22 -4 49 -10 60 -15 11 -5 43 -14 70 -19 28 -5 79 -17 115 -26 36
-9 81 -20 100 -24 91 -21 258 -63 285 -71 17 -5 48 -12 70 -15 22 -4 47 -9 55
-13 8 -3 40 -11 70 -18 30 -7 84 -20 120 -29 83 -21 122 -30 190 -45 30 -7 62
-15 70 -18 14 -5 52 -15 185 -45 33 -7 67 -16 75 -19 8 -4 38 -11 65 -16 56
-11 204 -48 250 -62 17 -5 50 -12 75 -16 25 -4 50 -10 55 -14 6 -4 35 -11 65
-15 30 -4 61 -11 70 -16 8 -4 38 -13 65 -19 50 -11 149 -34 215 -51 121 -30
171 -42 220 -53 30 -7 62 -15 70 -18 8 -4 38 -11 65 -16 28 -6 79 -18 115 -27
161 -40 266 -65 330 -78 30 -7 60 -15 65 -19 6 -3 33 -9 60 -13 28 -4 55 -11
60 -15 6 -4 30 -10 55 -14 25 -4 59 -11 75 -16 42 -14 190 -50 255 -64 30 -6
60 -14 65 -17 6 -4 35 -10 65 -14 30 -4 60 -11 65 -15 6 -4 30 -11 55 -14 25
-4 54 -11 65 -15 11 -5 56 -16 100 -26 44 -9 91 -21 105 -26 14 -5 45 -13 70
-19 117 -25 234 -53 460 -109 19 -5 67 -17 105 -26 39 -9 97 -23 130 -31 33
-9 85 -21 115 -28 30 -7 62 -15 70 -18 8 -4 33 -9 55 -13 22 -3 54 -10 70 -15
38 -12 180 -48 265 -67 154 -34 176 -40 190 -46 8 -3 38 -10 65 -16 58 -11
206 -47 251 -61 29 -10 69 -19 186 -43 31 -7 60 -15 64 -19 4 -5 13 -8 20 -8
18 0 331 -146 344 -160 3 -4 29 -20 57 -38 80 -48 152 -115 231 -212 21 -25
40 -46 45 -48 4 -2 7 -7 7 -12 0 -4 18 -35 40 -67 113 -170 171 -325 191 -513
11 -100 34 -11034 25 -11605 -3 -165 -9 -313 -15 -330 -6 -16 -15 -68 -20
-115 -16 -139 -48 -265 -97 -377 -8 -17 -14 -38 -14 -47 0 -9 -4 -16 -10 -16
-5 0 -10 -7 -10 -15 0 -20 -76 -166 -123 -237 -31 -46 -120 -137 -208 -214
-81 -70 -240 -175 -314 -207 -22 -10 -47 -22 -55 -26 -9 -5 -36 -12 -60 -16
-25 -4 -49 -10 -55 -14 -12 -7 -103 -24 -265 -48 -166 -25 -755 -25 -995 0
-261 27 -411 49 -625 91 -66 12 -120 25 -250 56 -19 5 -57 14 -85 20 -27 6
-57 15 -66 20 -9 4 -37 11 -63 15 -25 4 -49 11 -52 16 -3 5 -13 9 -23 9 -17 0
-70 14 -166 45 -22 7 -67 20 -100 30 -33 10 -67 21 -76 26 -9 4 -34 11 -55 15
-22 3 -43 10 -49 14 -5 4 -26 11 -45 14 -19 4 -44 11 -55 16 -11 5 -65 23
-120 40 -55 17 -107 35 -115 39 -9 5 -31 12 -50 16 -19 4 -39 11 -45 15 -5 4
-26 11 -45 15 -19 4 -39 11 -45 15 -5 4 -26 11 -45 15 -19 4 -41 11 -50 16 -8
4 -58 22 -110 39 -52 17 -102 35 -110 39 -9 5 -31 12 -50 16 -19 4 -41 11 -50
15 -8 5 -55 22 -105 40 -49 17 -99 35 -110 40 -86 38 -117 50 -162 66 -29 10
-53 22 -53 26 0 5 -6 8 -14 8 -7 0 -40 12 -72 26 -106 47 -149 65 -184 80 -55
24 -71 31 -143 63 -38 17 -72 31 -77 31 -5 0 -21 6 -37 14 -15 8 -46 22 -68
31 -22 9 -53 23 -70 30 -16 7 -46 20 -65 28 -31 13 -113 50 -175 77 -11 5 -42
18 -70 30 -58 25 -68 29 -158 69 -38 17 -73 31 -78 31 -5 0 -17 4 -27 10 -9 5
-39 19 -67 30 -57 24 -66 28 -158 69 -38 17 -70 31 -72 31 -2 0 -34 14 -72 31
-100 45 -105 47 -230 100 -13 5 -33 13 -45 18 -77 32 -126 53 -143 61 -191 85
-370 160 -382 160 -7 0 -13 3 -13 8 0 4 -23 15 -51 25 -28 10 -81 32 -117 48
-90 40 -99 45 -157 69 -58 24 -67 29 -157 69 -36 16 -89 38 -117 48 -28 10
-51 21 -51 25 0 5 -6 8 -13 8 -12 0 -83 29 -246 101 -25 11 -62 27 -81 35 -40
17 -54 23 -130 57 -30 13 -80 34 -110 47 -30 12 -68 28 -85 35 -16 7 -41 18
-55 23 -14 6 -56 25 -93 41 -38 17 -70 31 -72 31 -2 0 -34 14 -72 31 -98 44
-144 64 -228 98 -11 5 -45 21 -75 36 -30 15 -66 31 -80 35 -14 4 -32 11 -41
15 -10 4 -19 0 -22 -9 -4 -9 20 -41 64 -87 112 -116 1413 -1424 3228 -3245
922 -924 2583 -2590 3691 -3703 1908 -1914 2017 -2022 2047 -2019 28 3 295
266 2048 2013 1109 1106 2022 2011 2030 2013 7 2 42 -14 76 -36 35 -21 91 -54
124 -72 33 -19 78 -44 100 -57 22 -12 47 -26 55 -30 8 -3 31 -16 50 -28 36
-23 119 -69 180 -101 19 -11 37 -21 40 -24 3 -3 16 -11 30 -17 14 -7 48 -26
75 -42 28 -16 61 -36 75 -43 33 -19 161 -93 232 -134 31 -19 59 -34 62 -34 3
0 34 -17 68 -38 62 -38 140 -83 208 -118 19 -11 37 -21 40 -24 3 -3 21 -13 40
-24 68 -35 146 -80 208 -118 34 -21 64 -38 67 -38 2 0 39 -20 81 -45 41 -25
77 -45 80 -45 2 0 32 -17 66 -38 62 -38 140 -83 208 -118 19 -11 37 -21 40
-24 3 -3 16 -11 30 -17 31 -15 116 -64 191 -109 31 -19 62 -34 68 -34 6 0 11
-4 11 -10 0 -5 4 -10 9 -10 9 0 103 -52 328 -183 73 -42 135 -77 138 -77 3 0
22 -11 43 -23 36 -23 109 -64 182 -103 19 -11 40 -25 48 -31 7 -7 20 -13 28
-13 8 0 14 -4 14 -8 0 -4 12 -13 28 -19 15 -7 50 -25 77 -41 232 -135 368
-212 371 -212 2 0 21 -11 42 -23 36 -23 109 -64 182 -103 19 -11 40 -25 48
-31 7 -7 18 -13 23 -13 5 0 30 -13 56 -29 80 -49 157 -92 186 -104 15 -6 27
-15 27 -19 0 -4 5 -8 10 -8 6 0 43 -19 83 -43 39 -24 103 -61 142 -83 38 -21
99 -56 135 -77 36 -21 76 -43 90 -50 14 -6 31 -17 38 -24 7 -7 18 -13 23 -13
5 0 26 -11 47 -23 37 -24 116 -69 182 -103 19 -11 37 -21 40 -24 3 -3 16 -11
30 -17 14 -7 48 -26 75 -42 28 -16 61 -36 75 -44 14 -7 85 -48 157 -90 73 -42
135 -77 138 -77 2 0 33 -17 67 -38 62 -38 140 -83 208 -118 19 -11 37 -21 40
-24 3 -3 16 -11 30 -17 14 -7 48 -26 75 -43 28 -16 57 -33 65 -37 8 -4 43 -24
78 -45 34 -21 64 -38 67 -38 2 0 38 -20 78 -45 41 -25 77 -45 81 -45 3 0 34
-17 68 -38 62 -38 140 -83 208 -118 19 -11 37 -21 40 -24 3 -3 21 -13 40 -24
56 -29 101 -55 155 -87 28 -16 61 -35 75 -42 14 -6 27 -14 30 -17 13 -14 70
-40 87 -40 10 0 61 25 112 55 51 30 95 55 97 55 3 0 38 20 78 45 41 25 79 45
85 45 6 0 11 4 11 8 0 4 12 13 28 19 15 7 45 22 67 35 76 44 160 93 180 105
11 7 29 16 41 22 11 5 51 28 88 50 36 23 68 41 71 41 3 0 33 17 67 38 62 38
140 83 208 118 19 11 37 21 40 24 3 3 16 11 30 17 14 7 48 26 75 43 28 16 57
33 65 37 8 3 31 16 50 28 19 12 60 36 90 53 136 76 216 122 225 129 6 5 21 14
35 20 31 15 118 64 191 109 31 19 61 34 67 34 6 0 12 3 14 8 3 7 66 43 115 66
13 6 23 14 23 19 0 4 5 7 11 7 6 0 45 20 86 45 40 25 76 45 78 45 2 0 38 20
78 45 41 25 80 45 86 45 6 0 11 5 11 10 0 6 5 10 11 10 6 0 45 20 86 45 40 25
76 45 78 45 3 0 34 18 70 40 36 22 68 40 70 40 3 0 39 20 79 45 41 25 79 45
85 45 6 0 11 5 11 10 0 6 5 10 10 10 6 0 70 35 143 77 72 42 145 84 162 92 16
9 32 18 35 21 6 6 84 49 117 64 13 6 23 14 23 19 0 4 6 7 14 7 8 0 21 6 28 13
8 6 29 20 48 31 73 39 146 80 182 103 21 12 40 23 44 23 4 0 40 20 81 45 40
25 76 45 78 45 2 0 45 25 95 55 50 30 93 55 96 55 2 0 38 20 78 45 41 25 79
45 85 45 6 0 11 4 11 8 0 4 12 13 28 19 30 13 100 53 210 119 40 24 75 44 79
44 3 0 39 20 80 45 40 25 76 45 78 45 2 0 37 20 77 44 110 66 180 106 211 119
15 6 27 15 27 19 0 4 5 8 11 8 6 0 45 20 86 45 40 25 76 45 79 45 2 0 21 11
42 23 20 13 57 35 82 49 83 46 214 121 288 165 40 24 76 43 80 43 4 1 17 9 30
19 l22 19 0 3612 c0 2908 -2 3614 -13 3624 -7 7 -39 28 -72 46 -33 18 -78 43
-100 55 -22 12 -101 56 -175 99 -74 42 -142 80 -150 85 -8 4 -75 42 -147 84
-73 43 -135 77 -138 77 -3 0 -22 11 -43 23 -37 24 -116 69 -182 103 -19 11
-37 21 -40 24 -3 3 -16 11 -30 17 -14 7 -56 31 -95 53 -38 23 -82 46 -97 53
-16 6 -28 15 -28 19 0 4 -5 8 -11 8 -6 0 -45 20 -86 45 -40 25 -76 45 -78 45
-3 0 -34 18 -70 40 -36 22 -68 40 -71 40 -4 0 -32 15 -63 34 -75 45 -160 94
-191 109 -14 6 -27 14 -30 17 -3 3 -16 11 -30 17 -14 7 -56 31 -95 53 -38 22
-81 46 -95 53 -14 6 -31 17 -38 24 -7 7 -20 13 -28 13 -8 0 -14 3 -14 8 0 4
-10 12 -23 18 -40 19 -161 86 -199 111 -21 12 -40 23 -43 23 -3 0 -23 11 -45
25 -22 14 -64 38 -93 54 -29 16 -98 54 -152 86 -55 31 -109 61 -120 67 -11 5
-29 14 -40 21 -25 15 -128 75 -180 105 -22 12 -51 28 -65 35 -14 6 -27 14 -30
17 -3 3 -16 11 -30 17 -14 7 -56 31 -95 53 -38 22 -81 46 -95 53 -14 6 -27 14
-30 17 -3 3 -16 11 -30 17 -31 15 -116 64 -191 109 -31 19 -59 34 -63 34 -3 0
-34 17 -68 38 -69 42 -128 76 -228 130 -36 19 -76 42 -90 52 -14 9 -43 26 -65
37 -76 39 -109 58 -123 71 -7 6 -18 12 -23 12 -5 0 -33 16 -64 35 -30 20 -63
39 -73 42 -9 4 -37 19 -62 34 -81 49 -155 90 -182 102 -16 6 -28 15 -28 19 0
4 -5 8 -10 8 -6 0 -70 34 -143 75 -72 42 -139 79 -147 84 -8 4 -75 42 -147 84
-73 43 -135 77 -138 77 -3 0 -22 11 -43 23 -37 24 -116 69 -182 103 -19 11
-37 21 -40 24 -3 3 -21 13 -40 24 -84 44 -148 81 -187 107 -23 16 -44 29 -47
29 -3 0 -53 30 -112 66 -58 36 -114 68 -123 71 -9 4 -18 9 -21 13 -3 3 -52 35
-110 70 -58 36 -109 68 -115 72 -5 5 -66 46 -135 91 -365 242 -596 439 -751
642 -84 110 -226 363 -244 438 -4 15 -11 30 -16 33 -5 3 -9 12 -9 21 0 8 -6
29 -14 46 -14 31 -39 113 -72 232 -9 33 -18 87 -21 120 -2 33 -9 121 -15 195
-23 278 -13 669 21 800 5 19 17 69 26 110 28 119 56 207 84 260 49 93 130 230
146 246 5 6 19 27 30 47 11 20 23 37 27 37 5 0 8 7 8 15 0 8 3 15 8 15 4 0 18
17 32 37 52 76 222 251 310 317 119 92 345 216 392 216 8 0 18 4 23 8 12 9 63
25 260 81 123 35 396 90 650 132 217 35 497 63 805 80 215 11 945 4 983 -10
13 -5 72 -11 131 -12 l108 -4 18 40 c10 22 39 94 65 160 25 66 50 128 55 137
6 10 10 23 10 28 0 6 8 30 19 53 10 23 31 76 46 117 16 41 32 79 37 84 4 6 8
17 8 25 1 9 9 34 20 56 11 22 19 47 20 56 0 8 4 19 8 25 5 5 21 43 37 84 15
41 36 94 46 117 11 23 19 49 19 57 0 8 4 17 9 21 5 3 13 20 17 37 3 18 10 39
15 48 5 8 22 51 40 95 17 44 37 94 45 112 8 17 14 38 14 46 0 9 4 18 9 22 5 3
13 20 17 37 3 18 10 39 15 48 8 16 26 57 53 128 9 23 23 61 32 85 9 23 23 56
30 74 8 17 14 35 14 41 0 5 7 23 15 38 8 16 15 37 15 47 0 9 5 17 10 17 6 0
10 7 10 16 0 9 6 30 14 47 7 18 21 52 31 77 10 25 24 59 31 77 8 17 14 37 14
45 0 8 4 18 9 24 4 5 17 33 27 62 21 62 17 75 -41 106 -22 11 -42 23 -45 26
-4 4 -83 47 -165 89 -16 9 -32 18 -35 21 -3 3 -27 16 -55 30 -27 14 -52 27
-55 30 -4 5 -58 34 -165 89 -16 9 -32 18 -35 21 -3 3 -16 11 -30 17 -14 7 -56
31 -95 53 -38 22 -95 52 -125 67 -30 15 -57 30 -60 33 -3 3 -16 11 -30 17 -14
7 -56 31 -95 53 -38 22 -95 52 -125 67 -30 15 -57 30 -60 33 -6 6 -61 36 -140
77 -30 15 -57 30 -60 33 -3 3 -16 11 -30 17 -14 7 -50 27 -80 44 -54 31 -105
59 -225 124 -33 18 -85 47 -115 64 -30 18 -66 37 -80 44 -14 6 -27 14 -30 17
-3 3 -20 13 -38 23 -19 9 -71 37 -115 61 -45 24 -98 52 -117 62 -19 11 -37 21
-40 24 -4 4 -82 47 -165 89 -16 9 -32 18 -35 21 -3 3 -27 16 -55 30 -27 14
-52 27 -55 30 -5 5 -34 21 -135 74 -33 17 -62 33 -65 36 -3 3 -27 16 -55 30
-27 14 -52 27 -55 30 -6 6 -62 36 -140 77 -30 15 -57 30 -60 33 -3 3 -16 11
-30 17 -14 7 -56 31 -95 53 -38 22 -95 52 -125 67 -30 15 -57 30 -60 33 -3 3
-21 13 -40 24 -19 10 -58 31 -87 47 -65 36 -84 36 -145 -1 -26 -16 -50 -30
-53 -30 -2 0 -45 -25 -95 -55 -50 -30 -93 -55 -96 -55 -3 0 -39 -20 -80 -45
-40 -25 -78 -45 -84 -45 -5 0 -10 -4 -10 -8 0 -4 -12 -13 -27 -19 -31 -13
-101 -53 -211 -119 -40 -24 -75 -44 -78 -44 -5 0 -248 -140 -306 -177 -21 -12
-40 -23 -43 -23 -2 0 -34 -18 -70 -40 -36 -22 -69 -40 -74 -40 -5 0 -16 -6
-23 -12 -8 -7 -29 -21 -48 -32 -73 -39 -146 -80 -182 -103 -21 -12 -40 -23
-43 -23 -2 0 -42 -22 -87 -48 -111 -65 -214 -125 -263 -152 -22 -12 -65 -37
-96 -56 -31 -19 -62 -34 -68 -34 -6 0 -11 -4 -11 -8 0 -4 -12 -13 -27 -19 -31
-13 -101 -53 -211 -119 -40 -24 -75 -44 -77 -44 -2 0 -45 -25 -95 -55 -50 -30
-93 -55 -96 -55 -2 0 -64 -35 -137 -77 -72 -42 -145 -84 -162 -92 -16 -9 -32
-18 -35 -21 -3 -3 -21 -13 -40 -23 -60 -32 -95 -52 -100 -57 -3 -3 -16 -11
-30 -17 -14 -7 -47 -26 -75 -43 -27 -16 -57 -33 -65 -37 -8 -4 -43 -24 -78
-45 -34 -21 -65 -38 -68 -38 -6 0 -134 -74 -174 -100 -8 -6 -22 -13 -30 -17
-8 -4 -43 -24 -78 -45 -34 -21 -64 -38 -67 -38 -2 0 -38 -20 -78 -45 -41 -25
-80 -45 -86 -45 -6 0 -11 -4 -11 -8 0 -4 -12 -13 -27 -19 -31 -13 -101 -53
-211 -119 -40 -24 -75 -44 -78 -44 -3 0 -39 -20 -80 -45 -40 -25 -78 -45 -84
-45 -5 0 -10 -4 -10 -9 0 -5 -11 -12 -25 -15 -14 -4 -25 -11 -25 -16 0 -6 -5
-10 -11 -10 -6 0 -58 -28 -117 -61 -58 -34 -113 -65 -121 -70 -37 -20 -289
-164 -316 -181 -16 -10 -37 -21 -45 -25 -8 -4 -47 -26 -86 -50 -39 -24 -77
-43 -83 -43 -6 0 -11 -4 -11 -8 0 -4 -12 -13 -27 -19 -28 -12 -102 -53 -183
-102 -25 -15 -52 -30 -60 -34 -8 -4 -37 -21 -65 -37 -27 -17 -62 -36 -77 -42
-16 -7 -28 -16 -28 -20 0 -4 -6 -8 -13 -8 -7 0 -36 -16 -66 -35 -29 -19 -55
-35 -58 -35 -3 0 -25 -12 -49 -27 l-43 -28 -1 -3416 0 -3416 68 -34 c37 -18
69 -36 72 -39 3 -3 28 -16 55 -30 28 -14 52 -28 55 -31 5 -6 53 -33 156 -89
50 -27 273 -155 404 -230 90 -52 135 -77 210 -118 36 -19 70 -38 75 -42 10 -7
91 -52 155 -86 19 -11 37 -21 40 -24 3 -3 21 -13 40 -24 66 -34 145 -79 182
-103 21 -12 40 -23 42 -23 2 0 74 -41 160 -90 86 -50 158 -90 161 -90 2 0 34
-18 70 -40 36 -22 67 -40 70 -40 3 0 34 -18 70 -40 36 -22 68 -40 71 -40 4 0
39 -20 78 -45 40 -25 76 -45 80 -45 3 0 23 -11 44 -23 40 -26 100 -60 202
-115 36 -19 82 -46 102 -59 21 -12 40 -23 42 -23 3 0 39 -20 79 -45 41 -25 77
-45 81 -45 3 0 35 -18 71 -40 36 -22 67 -40 70 -40 2 0 38 -20 78 -45 41 -25
77 -45 81 -45 4 0 23 -11 44 -23 37 -24 116 -69 182 -103 19 -11 37 -21 40
-24 3 -3 16 -11 30 -17 14 -7 57 -31 95 -53 39 -22 81 -46 95 -53 14 -6 27
-14 30 -18 3 -3 12 -9 20 -12 8 -4 38 -21 65 -37 28 -17 59 -35 71 -39 11 -5
51 -28 88 -50 36 -23 68 -41 70 -41 3 0 39 -20 80 -45 42 -25 79 -45 81 -45 3
0 34 -18 70 -40 36 -22 67 -40 70 -40 2 0 38 -20 78 -45 41 -25 77 -45 81 -45
4 0 23 -11 44 -23 40 -26 100 -60 202 -115 36 -19 82 -46 102 -59 21 -12 40
-23 43 -23 2 0 34 -18 70 -40 36 -22 68 -40 71 -40 4 0 32 -15 63 -34 31 -19
79 -47 106 -62 28 -15 68 -38 90 -51 22 -12 47 -26 55 -30 8 -3 31 -16 50 -28
36 -23 119 -69 180 -101 19 -11 37 -21 40 -24 3 -3 16 -11 30 -17 14 -7 57
-31 95 -53 39 -22 81 -46 95 -53 14 -6 27 -14 30 -17 9 -9 84 -51 113 -63 15
-6 27 -15 27 -19 0 -4 5 -8 11 -8 6 0 45 -20 86 -45 40 -25 76 -45 78 -45 2 0
38 -20 78 -45 41 -25 77 -45 81 -45 4 0 23 -11 44 -23 40 -26 100 -60 202
-115 97 -52 235 -139 250 -157 7 -8 19 -15 26 -15 8 0 14 -4 14 -8 0 -4 31
-33 70 -62 38 -30 70 -58 70 -62 0 -5 4 -8 9 -8 10 0 207 -195 242 -238 11
-15 36 -44 55 -64 19 -20 34 -42 34 -47 0 -6 6 -14 13 -18 6 -4 28 -30 46 -58
19 -27 38 -52 42 -55 3 -3 9 -15 13 -27 4 -13 12 -23 17 -23 5 0 9 -4 9 -9 0
-5 19 -42 43 -83 157 -270 240 -569 236 -848 -1 -63 -4 -119 -8 -125 -3 -5 -7
-19 -8 -30 -12 -97 -12 -99 -53 -225 -92 -283 -333 -545 -646 -705 -45 -23
-91 -45 -101 -48 -10 -3 -43 -14 -73 -25 -113 -41 -246 -74 -380 -94 -170 -26
-597 -13 -745 22 -22 5 -56 11 -75 14 -49 6 -239 55 -277 72 -17 8 -43 14 -57
14 -14 0 -26 4 -26 9 0 5 -15 13 -32 16 -35 7 -234 109 -441 224 -29 16 -92
50 -142 76 -49 26 -94 51 -100 55 -5 4 -62 35 -125 68 -63 33 -133 70 -155 82
-22 12 -80 44 -130 70 -49 26 -119 64 -155 84 -36 20 -85 46 -110 58 -25 13
-47 25 -50 28 -3 3 -20 13 -38 23 -19 9 -73 38 -120 64 -48 25 -114 60 -147
77 -33 17 -62 33 -65 36 -3 3 -27 17 -55 31 -27 14 -75 39 -105 56 -30 16 -91
49 -135 73 -133 72 -206 111 -290 157 -44 24 -105 55 -135 70 -30 15 -57 30
-60 33 -6 6 -107 60 -195 105 -33 16 -62 32 -65 35 -5 5 -17 12 -145 80 -38
20 -97 52 -130 70 -145 79 -184 100 -250 135 -38 21 -97 52 -130 70 -81 44
-183 99 -280 150 -44 24 -96 51 -115 61 -19 11 -37 22 -40 25 -3 4 -16 10 -30
14 -14 4 -27 10 -30 14 -5 6 -53 33 -140 78 -30 15 -57 30 -60 33 -3 3 -32 19
-65 36 -34 17 -85 45 -115 61 -30 17 -95 52 -145 78 -49 26 -94 51 -100 55 -5
4 -59 33 -120 65 -60 32 -135 71 -165 88 -30 16 -81 44 -115 61 -33 17 -62 33
-65 36 -5 5 -93 52 -195 104 -33 17 -62 33 -65 36 -6 6 -109 61 -195 105 -33
16 -62 32 -65 35 -5 5 -17 12 -145 80 -38 20 -97 52 -130 70 -33 18 -77 42
-97 52 l-38 20 -2 6878 c-2 3783 -7 6882 -11 6887 -13 12 -13477 16 -13477 3z"/>
<path d="M14318 25043 c-2 -676 0 -1238 4 -1250 l7 -23 33 20 c18 10 56 31 83
44 51 26 96 51 175 97 25 15 70 40 100 57 30 16 73 40 95 52 22 12 63 35 90
50 57 31 210 116 270 150 22 13 69 38 105 58 36 19 70 38 75 42 10 7 56 33
160 90 28 15 113 62 190 105 77 43 154 85 170 93 17 9 32 18 35 21 3 3 32 20
65 37 103 54 130 69 135 74 3 3 16 11 30 17 14 7 57 31 95 53 39 22 81 46 95
53 14 6 27 14 30 17 5 5 32 20 135 74 33 17 62 34 63 39 2 4 10 7 17 7 8 0 20
6 27 13 7 6 38 24 68 39 60 30 132 70 140 78 3 3 28 16 55 30 28 14 52 27 55
30 3 3 16 11 30 17 14 7 57 31 95 53 39 22 81 46 95 53 14 6 27 14 30 17 3 3
23 14 45 25 22 11 56 29 75 41 19 11 64 37 100 56 36 19 85 47 110 60 25 14
72 40 105 58 33 18 65 36 70 40 6 4 39 23 75 42 36 20 86 47 111 61 25 14 66
37 90 50 24 13 80 44 124 69 44 25 105 59 135 75 30 17 76 42 103 57 26 14 68
38 95 52 84 46 167 98 170 106 2 4 9 8 16 8 16 0 156 99 156 111 0 5 -853 9
-2215 9 l-2215 0 -2 -1227z"/>
<path d="M24823 23528 c-16 -22 -43 -85 -43 -102 0 -9 -4 -16 -10 -16 -5 0
-10 -7 -10 -16 0 -9 -6 -30 -14 -47 -7 -18 -21 -52 -31 -77 -10 -25 -23 -58
-30 -75 -7 -16 -21 -52 -31 -80 -10 -27 -24 -61 -31 -75 -7 -14 -13 -31 -13
-38 0 -7 -4 -20 -10 -30 -9 -17 -21 -45 -55 -132 -10 -25 -24 -59 -31 -77 -8
-17 -14 -35 -14 -41 0 -5 -7 -23 -15 -38 -8 -16 -15 -37 -15 -46 0 -10 -4 -18
-10 -18 -5 0 -10 -7 -10 -16 0 -9 -6 -30 -14 -47 -8 -18 -28 -68 -46 -112 -17
-44 -38 -94 -46 -112 -8 -17 -14 -36 -14 -42 0 -6 -4 -19 -10 -29 -5 -9 -23
-53 -40 -97 -18 -44 -39 -98 -47 -120 -9 -22 -22 -54 -29 -72 -8 -17 -14 -36
-14 -42 0 -6 -4 -19 -10 -29 -36 -65 -123 -300 -116 -317 7 -19 70 -45 110
-45 17 0 48 -5 68 -10 20 -6 65 -15 100 -20 65 -9 201 -31 348 -55 47 -8 126
-21 175 -29 50 -8 131 -22 180 -31 50 -9 115 -20 145 -25 30 -5 98 -16 150
-25 52 -9 136 -23 185 -30 110 -18 239 -39 365 -60 52 -9 120 -20 150 -25 30
-5 96 -16 145 -25 50 -9 133 -23 185 -31 52 -8 133 -22 180 -29 47 -8 126 -21
175 -29 50 -8 104 -17 120 -21 30 -6 169 -29 235 -40 19 -3 76 -12 125 -20 50
-9 133 -22 185 -31 155 -25 259 -42 360 -59 52 -9 120 -20 150 -25 30 -5 96
-17 145 -25 50 -9 133 -22 185 -31 119 -19 238 -38 360 -59 52 -9 120 -20 150
-25 30 -5 96 -16 145 -25 50 -9 131 -22 180 -30 50 -8 115 -19 145 -24 30 -5
82 -10 115 -10 34 -1 65 -5 70 -10 6 -5 44 -14 85 -21 41 -6 95 -15 120 -20
25 -5 87 -15 138 -24 51 -8 97 -18 102 -21 5 -3 17 -2 26 3 13 7 -1 19 -69 61
-46 28 -90 51 -96 51 -6 0 -11 3 -11 8 0 4 -17 16 -37 27 -21 11 -57 32 -80
47 -23 15 -44 28 -47 28 -3 0 -57 32 -120 70 -62 39 -118 70 -125 70 -6 0 -11
4 -11 10 0 5 -11 12 -25 16 -14 3 -25 10 -25 15 0 5 -5 9 -12 9 -6 0 -52 25
-101 56 -49 30 -99 60 -111 65 -11 5 -28 13 -36 19 -77 49 -199 120 -208 120
-7 0 -12 4 -12 9 0 5 -10 13 -22 17 -12 4 -73 38 -134 75 -61 38 -114 69 -118
69 -3 0 -46 25 -95 55 -49 30 -94 55 -100 55 -6 0 -11 4 -11 9 0 5 -10 13 -22
17 -12 4 -73 38 -134 75 -61 38 -116 69 -123 69 -6 0 -11 5 -11 10 0 6 -5 10
-11 10 -6 0 -45 20 -86 45 -40 25 -78 45 -83 45 -6 0 -10 4 -10 9 0 5 -10 13
-22 17 -12 4 -84 44 -160 90 -75 46 -139 84 -142 84 -3 0 -46 25 -96 55 -50
30 -95 55 -100 55 -6 0 -10 5 -10 10 0 6 -5 10 -11 10 -6 0 -67 34 -136 75
-68 41 -126 75 -128 75 -4 0 -172 99 -205 120 -8 6 -22 13 -30 17 -15 7 -231
134 -260 153 -8 6 -22 13 -30 17 -8 4 -66 37 -128 75 -62 37 -115 68 -117 68
-2 0 -56 32 -120 70 -64 39 -118 70 -120 70 -2 0 -67 38 -145 85 -78 47 -143
85 -145 85 -4 0 -172 99 -205 120 -8 6 -22 13 -30 17 -8 4 -66 37 -128 75 -62
37 -115 68 -117 68 -2 0 -55 30 -117 68 -62 37 -131 76 -153 87 -22 11 -41 23
-43 28 -6 12 -49 8 -59 -5z"/>
</g>
</svg>
